<svg width="29" height="29" viewBox="0 0 29 29" fill="none" xmlns="http://www.w3.org/2000/svg">
<g clip-path="url(#clip0_703_34)">
<path d="M17 0H5L0 5V17V29H24L29 24V0H17ZM12.7405 12.038C12.714 12.0455 12.688 12.0535 12.663 12.063C12.6885 12.054 12.7135 12.0455 12.7405 12.038ZM4.5825 16.8105C4.62562 16.7781 4.66655 16.7428 4.705 16.705C4.84504 16.5685 4.94084 16.3931 4.98 16.2015C4.92863 16.4472 4.78674 16.6646 4.5825 16.8105ZM5 16C5 16.0265 4.9945 16.05 4.9925 16.0765C4.9925 16.0505 5 16.027 5 16ZM5.52 12.055C4.80257 12.2278 4.24023 12.7844 4.06 13.5C4.30606 12.5178 5.24734 11.8745 6.25184 12.0019C7.25633 12.1294 8.00708 12.9875 8 14C7.99954 13.385 7.71666 12.8043 7.23271 12.4249C6.74875 12.0454 6.11733 11.9087 5.52 12.055ZM7.0075 16.0765C7.0075 16.051 7 16.0265 7 16C7 16.0265 7.0055 16.0495 7.0075 16.0765ZM11.83 24.44C11.8355 24.448 11.837 24.4575 11.8425 24.4655C11.824 24.437 11.803 24.4105 11.782 24.384C11.7989 24.4018 11.815 24.4205 11.83 24.44ZM7.02 16.2C7.05916 16.3916 7.15496 16.567 7.295 16.7035C7.33345 16.7413 7.37438 16.7766 7.4175 16.809C7.21326 16.6631 7.07137 16.4457 7.02 16.2ZM7.055 15.745C7.0884 15.6883 7.13276 15.6388 7.1855 15.5995C7.13293 15.6389 7.08873 15.6883 7.0555 15.745H7.055ZM8.5 24.9405C7.78439 24.7603 7.22783 24.1979 7.055 23.4805C7.01809 23.3217 6.99964 23.1591 7 22.996C6.9998 23.1589 7.01842 23.3213 7.0555 23.48C7.22825 24.1973 7.78458 24.7601 8.5 24.9405C8.89416 25.0385 9.30863 25.0157 9.69 24.876C9.30878 25.0164 8.89416 25.0389 8.5 24.9405ZM10.529 24.271C10.5485 24.247 10.5715 24.225 10.59 24.2C10.6075 24.1777 10.6267 24.1568 10.6475 24.1375C10.6273 24.1564 10.6086 24.1768 10.5915 24.1985C10.5725 24.224 10.55 24.2465 10.529 24.271ZM11 24C11.178 24.0005 11.3524 24.0496 11.5045 24.142C11.3521 24.0502 11.1779 24.0012 11 24ZM11.938 24.665C11.947 24.6905 11.955 24.715 11.962 24.7415C11.954 24.7158 11.946 24.69 11.938 24.665Z" fill="#4684E6"/>
<path d="M7.055 23.4806C7.23741 24.2316 7.83743 24.8095 8.59474 24.9635C9.35204 25.1176 10.1302 24.8201 10.5915 24.2001C10.6757 24.0787 10.8124 24.0045 10.96 24.0001H11C11.5523 24.0001 12 24.4478 12 25.0001V29.0001H0V17.0001H4C4.55228 17.0001 5 16.5524 5 16.0001V15.9601C4.99621 15.8131 4.92294 15.6765 4.8025 15.5921C4.1109 15.0773 3.82707 14.1772 4.09825 13.3587C4.36943 12.5403 5.13457 11.9878 5.99675 11.9878C6.85893 11.9878 7.62407 12.5403 7.89525 13.3587C8.16642 14.1772 7.8826 15.0773 7.191 15.5921C7.07295 15.6733 7.00173 15.8068 7 15.9501V16.0001C7 16.5524 7.44771 17.0001 8 17.0001H12V21.0001C12 21.5524 11.5523 22.0001 11 22.0001H10.9465C10.8052 21.9964 10.6743 21.9254 10.594 21.8091C10.222 21.3007 9.62993 21.0002 9 21.0001C8.38482 21.0004 7.80387 21.2832 7.42428 21.7673C7.04468 22.2514 6.90853 22.8831 7.055 23.4806Z" fill="#C1D9FF"/>
<path d="M23.9995 17V29.0001H11.9995V25.0001C12.0008 24.8005 11.9415 24.6053 11.8295 24.4401C11.7946 24.3863 11.7526 24.3375 11.7045 24.2951C11.5193 24.1052 11.2648 23.9987 10.9995 24.0001H10.9595C10.8117 24.0052 10.6747 24.0792 10.5895 24.2001C10.073 24.8902 9.17245 25.1718 8.35482 24.8988C7.53719 24.6258 6.98648 23.8596 6.98829 22.9976C6.99009 22.1356 7.54399 21.3717 8.36276 21.1021C9.18152 20.8325 10.0809 21.1178 10.5945 21.8101C10.6741 21.9258 10.8042 21.9964 10.9445 22.0001H10.9995C11.5518 22.0001 11.9995 21.5524 11.9995 21.0001V17.0001H15.9995C16.1338 16.9981 16.2669 17.0254 16.3895 17.0801C16.4163 17.0876 16.4416 17.0994 16.4645 17.1151C16.4978 17.1304 16.5296 17.1489 16.5595 17.1701C16.6139 17.2062 16.6642 17.2482 16.7095 17.2951C16.8961 17.4822 17.0004 17.7359 16.9995 18.0001V18.0551C16.9958 18.1954 16.9252 18.3255 16.8095 18.4051C16.3006 18.7772 15.9997 19.3697 15.9995 20.0001C15.9948 20.9419 16.6478 21.7593 17.5673 21.9628C18.4868 22.1664 19.4237 21.7008 19.8169 20.8451C20.21 19.9893 19.9529 18.9752 19.1995 18.4101C19.0786 18.3249 19.0046 18.1879 18.9995 18.0401V18.0001C18.9981 17.7348 19.1046 17.4803 19.2945 17.2951C19.337 17.2471 19.3857 17.205 19.4395 17.1701C19.466 17.1505 19.4945 17.1338 19.5245 17.1201C19.5513 17.1038 19.5798 17.0904 19.6095 17.0801C19.7323 17.0259 19.8653 16.9986 19.9995 17.0001L23.9995 17Z" fill="#6CA4FF"/>
<path d="M24 5V17H20C19.8658 16.9985 19.7328 17.0258 19.61 17.08C19.5803 17.0903 19.5518 17.1037 19.525 17.12C19.495 17.1337 19.4665 17.1504 19.44 17.17C19.3862 17.2049 19.3375 17.2469 19.295 17.295C19.1051 17.4802 18.9986 17.7347 19 18V18.04C19.0051 18.1878 19.0791 18.3248 19.2 18.41C19.8902 18.9265 20.1717 19.8271 19.8987 20.6447C19.6257 21.4623 18.8595 22.013 17.9975 22.0112C17.1355 22.0094 16.3716 21.4555 16.102 20.6368C15.8324 19.818 16.1177 18.9186 16.81 18.405C16.9257 18.3254 16.9963 18.1953 17 18.055V18C17.0009 17.7358 16.8966 17.4821 16.71 17.295C16.6647 17.248 16.6144 17.2061 16.56 17.17C16.5301 17.1487 16.4983 17.1303 16.465 17.115C16.4421 17.0993 16.4168 17.0875 16.39 17.08C16.2674 17.0253 16.1343 16.998 16 17H12V13C11.9986 12.7347 12.1051 12.4802 12.295 12.295C12.3375 12.2469 12.3862 12.2049 12.44 12.17C12.4665 12.1504 12.495 12.1337 12.525 12.12C12.5523 12.1046 12.5808 12.0913 12.61 12.08C12.7328 12.0258 12.8658 11.9985 13 12H13.055C13.1953 12.0037 13.3254 12.0743 13.405 12.19C13.7771 12.6989 14.3696 12.9998 15 13C15.9418 13.0047 16.7592 12.3518 16.9627 11.4323C17.1663 10.5127 16.7007 9.57583 15.845 9.18266C14.9892 8.78948 13.9751 9.0466 13.41 9.8C13.3256 9.92182 13.1882 9.99611 13.04 10H13C12.4484 9.99835 12.0017 9.5516 12 9L12 5H24Z" fill="#C1D9FF"/>
<path d="M15 13C14.3696 12.9998 13.7771 12.6989 13.405 12.19C13.3254 12.0743 13.1953 12.0037 13.055 12H13C12.8004 11.9988 12.6052 12.058 12.44 12.17C12.3862 12.2049 12.3374 12.2469 12.295 12.295C12.1051 12.4802 11.9986 12.7347 12 13V17H8C7.80044 17.0013 7.60519 16.942 7.44 16.83C7.38821 16.7925 7.33971 16.7507 7.295 16.705C7.10507 16.5198 6.99859 16.2653 7 16V15.945C7.00373 15.8047 7.07435 15.6746 7.19 15.595C7.69892 15.2229 7.99982 14.6304 8 14C8.0047 13.0582 7.35176 12.2408 6.43225 12.0373C5.51274 11.8338 4.57583 12.2993 4.18266 13.1551C3.78948 14.0108 4.0466 15.0249 4.8 15.59C4.92182 15.6744 4.99611 15.8118 5 15.96V16C5.00141 16.2653 4.89493 16.5198 4.705 16.705C4.66029 16.7507 4.61179 16.7925 4.56 16.83C4.39481 16.942 4.19956 17.0013 4 17L0 17V5H12V9C12.0016 9.5516 12.4484 9.99835 13 10H13.04C13.1882 9.99611 13.3256 9.92182 13.41 9.8C13.9751 9.0466 14.9892 8.78949 15.8449 9.18266C16.7007 9.57583 17.1662 10.5127 16.9627 11.4323C16.7592 12.3518 15.9418 13.0047 15 13Z" fill="#6CA4FF"/>
<path d="M17 0L12 5H0L5 0H17Z" fill="#3F75CC"/>
<path d="M29 0L24 5H12L17 0H29Z" fill="#A8C7F7"/>
<path d="M29 12V24L24 29V17L29 12Z" fill="#3F75CC"/>
</g>
<defs>
<clipPath id="clip0_703_34">
<rect width="29" height="29" fill="white"/>
</clipPath>
</defs>
</svg>
