<svg width="32" height="32" viewBox="0 0 32 32" fill="none" xmlns="http://www.w3.org/2000/svg">
<path d="M13 2.25H4C3.0335 2.25 2.25 3.0335 2.25 4V13C2.25 13.9665 3.0335 14.75 4 14.75H13C13.9665 14.75 14.75 13.9665 14.75 13V4C14.75 3.0335 13.9665 2.25 13 2.25Z" fill="#699EFA"/>
<path d="M13 17.25H4C3.0335 17.25 2.25 18.0335 2.25 19V28C2.25 28.9665 3.0335 29.75 4 29.75H13C13.9665 29.75 14.75 28.9665 14.75 28V19C14.75 18.0335 13.9665 17.25 13 17.25Z" fill="#699EFA"/>
<path d="M28 2.25H19C18.0335 2.25 17.25 3.0335 17.25 4V13C17.25 13.9665 18.0335 14.75 19 14.75H28C28.9665 14.75 29.75 13.9665 29.75 13V4C29.75 3.0335 28.9665 2.25 28 2.25Z" fill="#699EFA"/>
<path d="M28.8116 18.6065C28.0338 18.1014 27.1045 17.8826 26.183 17.9878C25.2616 18.0929 24.4054 18.5154 23.7613 19.1827L23.6246 19.3194L23.4874 19.1827C22.8434 18.5157 21.9876 18.0933 21.0665 17.9879C20.1453 17.8824 19.2162 18.1004 18.4381 18.6046C17.954 18.928 17.5476 19.3548 17.2482 19.8541C16.9488 20.3535 16.7638 20.913 16.7066 21.4924C16.6493 22.0718 16.7212 22.6567 16.9171 23.2049C17.113 23.7532 17.428 24.2512 17.8395 24.6632L22.3087 29.1329C22.6581 29.4812 23.1313 29.6768 23.6246 29.6768C24.118 29.6768 24.5912 29.4812 24.9405 29.1329L29.4093 24.6632C29.8208 24.2515 30.1359 23.7537 30.3319 23.2056C30.5279 22.6575 30.5999 22.0728 30.5427 21.4935C30.4856 20.9143 30.3007 20.3549 30.0013 19.8557C29.702 19.3565 29.2957 18.9298 28.8116 18.6065Z" fill="#BEDCFE"/>
</svg>
