<svg width="169" height="169" viewBox="0 0 169 169" fill="none" xmlns="http://www.w3.org/2000/svg">
<g clip-path="url(#clip0_703_45)">
<path d="M132.679 153.085C152.514 138.348 165.369 114.741 165.369 88.1309C165.369 43.4685 129.162 7.26172 84.5 7.26172C39.8376 7.26172 3.63086 43.4685 3.63086 88.1309C3.63086 114.603 16.3518 138.104 36.0133 152.856L132.679 153.085Z" fill="#DEEAFF"/>
<path d="M75.1736 0.553185C48.5185 4.18534 45.9849 19.298 45.9733 24.8436C45.9707 26.0053 45.326 27.0832 44.2803 27.5925C30.4157 34.3372 37.8915 66.8448 37.8915 66.8448C39.284 66.9376 40.741 67.5023 41.8279 68.0284C42.0935 66.3716 42.5294 64.7418 43.1418 63.1649C43.6098 61.9632 44.1952 60.7499 44.925 59.6037C46.1937 57.6142 46.7701 55.2675 46.5986 52.9209C46.0996 46.1401 46.3394 32.7758 55.2915 28.7491C62.8756 25.3361 72.1784 27.3114 78.1108 29.2855C81.9634 30.5658 86.1371 30.5658 89.9897 29.2855C95.9221 27.3114 105.225 25.3361 112.809 28.7491C121.735 32.7655 122 46.064 121.507 52.8629C121.336 55.2276 121.898 57.5987 123.174 59.6024C123.928 60.786 124.528 62.0406 125.003 63.2797C125.593 64.8205 126.013 66.4115 126.273 68.0284C127.643 67.3644 129.602 66.6411 131.277 66.8783C131.482 59.77 132.138 52.1073 132.138 52.1073C140.037 13.4185 103.875 -3.35747 75.1736 0.553185Z" fill="#979797"/>
<path d="M75.1736 0.553242C48.5185 4.18539 45.9849 19.2981 45.9733 24.8424C45.9707 26.0054 45.326 27.0833 44.2803 27.5913C30.4157 34.3373 37.8915 66.8448 37.8915 66.8448C39.284 66.9377 40.741 67.5011 41.8279 68.0285C42.0935 66.3716 42.5294 64.7406 43.1418 63.165C43.6098 61.9633 44.1952 60.75 44.925 59.6037C46.1937 57.6142 46.7701 55.2676 46.5986 52.9209C46.0996 46.1401 46.3394 32.7758 55.2915 28.7492C62.4398 25.5322 71.1134 27.1026 77.0535 28.9451C76.989 28.8033 76.9297 28.6589 76.8627 28.5184C67.6849 9.2178 83.539 0.282475 84.038 0.00654963C81.0428 -0.0218164 78.0708 0.158695 75.1736 0.553242Z" fill="#5B5E8B"/>
<path d="M84.5 169C102.75 169 119.585 162.953 133.117 152.757C128.213 150.82 123.178 149.217 117.919 147.969C117.485 147.866 117.094 147.63 116.795 147.297C116.794 147.296 116.791 147.294 116.79 147.292C116.788 147.299 116.787 147.306 116.786 147.313C112.045 142.064 110.817 132.724 110.589 126.126C103.391 134.512 95.1914 140.224 84.05 140.224C72.9086 140.224 64.7095 134.513 57.5084 126.126C57.2814 132.724 56.054 142.064 51.3117 147.313C51.3117 147.306 51.3091 147.299 51.3091 147.292C51.3065 147.294 51.3052 147.295 51.3039 147.297C51.0048 147.63 50.6141 147.866 50.1796 147.969C45.1343 149.166 40.2966 150.694 35.5801 152.525C49.1649 162.86 66.1149 169 84.5 169Z" fill="#FFD9DB"/>
<path d="M79.9518 168.87C84.8681 158.096 86.467 144.518 86.8757 140.095C85.9538 140.179 85.0138 140.224 84.0507 140.224C72.9092 140.224 64.7102 134.513 57.5103 126.126C57.2821 132.724 56.0546 142.064 51.3136 147.313C51.3123 147.306 51.311 147.299 51.3097 147.292C51.3085 147.294 51.3072 147.295 51.3059 147.297C51.0067 147.63 50.6161 147.866 50.1816 147.969C45.1363 149.166 40.2973 150.694 35.582 152.525C48.0373 162.001 63.3241 167.948 79.9518 168.87Z" fill="#F0B4B6"/>
<path d="M125.333 63.1533C123.819 59.2053 121.515 57.6348 121.859 52.8887C123.107 35.6524 116.815 30.1635 112.953 28.4268C105.402 25.028 96.2381 26.8357 89.8789 28.9502C86.1204 30.1996 81.9802 30.1996 78.2217 28.9502C71.8626 26.8357 62.699 25.0293 55.1472 28.4268C51.1334 30.2332 48.4115 34.0329 47.059 39.7203C45.9321 44.4523 45.9953 49.5247 46.2467 52.9467C46.5871 57.5794 44.3023 59.2156 42.8131 63.036C41.3058 66.9118 40.8171 71.2119 41.4025 75.4719L43.5094 90.8193C43.5184 116.194 58.8735 130.857 65.4763 135.985C76.3109 144.398 91.6685 144.492 102.624 135.985C109.227 130.857 124.582 116.194 124.591 90.8193L126.698 75.4745C127.277 71.257 126.805 66.9956 125.333 63.1533Z" fill="#FFD9DB"/>
<path d="M84.1773 135.984C79.5833 130.857 68.9009 116.194 68.8944 90.8191L67.4284 75.4718C67.021 71.2117 67.3614 66.9117 68.4109 63.0358C69.4463 59.2154 71.0361 57.5792 70.7988 52.9465C70.6247 49.5245 70.5796 44.4522 71.3636 39.7202C72.2906 34.1217 74.1421 30.3568 76.8627 28.5168C70.6028 26.6099 62.1768 25.2638 55.1472 28.4266C51.1334 30.233 48.4128 34.0328 47.059 39.7202C45.932 44.4522 45.9952 49.5245 46.2467 52.9465C46.587 57.5792 44.3023 59.2154 42.8144 63.0358C41.3058 66.9117 40.8171 71.2117 41.4025 75.4718L43.5093 90.8191C43.5196 116.194 58.8734 130.857 65.4763 135.984C73.0423 141.859 82.8131 143.672 91.7498 141.338C89.0511 140.326 86.4685 138.541 84.1773 135.984Z" fill="#FABEC1"/>
<path d="M126.244 46.3091C125.293 43.0328 122.26 40.6204 118.689 40.6204H50.3109C46.7393 40.6204 43.7055 43.0328 42.7539 46.3091H126.244Z" fill="#ADCBFA"/>
<path d="M70.3825 44.9152C69.8422 43.3151 70.2329 42.107 70.6442 41.3862C70.7796 41.1477 70.8505 40.8847 70.8608 40.6204H50.3109C46.7393 40.6204 43.7055 43.0328 42.7539 46.3091H70.2368C70.4934 45.8926 70.5424 45.3846 70.3825 44.9152Z" fill="#6CA4FF"/>
<path d="M127.149 45.792H41.8524C37.0353 45.792 33.0938 49.7336 33.0938 54.5507V82.9413C33.0938 92.2286 40.692 99.8281 49.9793 99.8281H119.021C128.31 99.8281 135.908 92.2286 135.908 82.9413V54.5507C135.908 49.7336 131.966 45.792 127.149 45.792Z" fill="#3E7FFF"/>
<path d="M70.4403 45.792H41.8524C37.0353 45.792 33.0938 49.7336 33.0938 54.5507V82.9413C33.0938 92.2286 40.692 99.8281 49.9793 99.8281H69.3637C66.3723 96.8355 67.8242 94.3561 68.572 93.4393C68.7989 93.1634 68.9305 92.8217 68.9408 92.4646L70.1064 51.8662C70.1141 51.5787 70.0458 51.2924 69.9039 51.0436C68.7061 48.9406 69.4965 47.2993 70.1489 46.4444C70.2985 46.2471 70.3939 46.0241 70.4403 45.792Z" fill="#0080F4"/>
<path d="M125.094 51.3928H43.9051C41.3702 51.3928 39.2969 53.4674 39.2969 56.001V83.2428C39.2969 88.965 43.9786 93.648 49.7008 93.648H65.4994C68.2819 93.648 70.9883 92.5301 72.8269 90.4413C74.0389 89.0656 75.8118 88.1927 77.7781 88.1927H91.221C93.1886 88.1927 94.9615 89.0656 96.1722 90.4413C98.0108 92.5301 100.719 93.648 103.501 93.648H119.298C125.022 93.648 129.704 88.965 129.704 83.2428V56.001C129.702 53.4674 127.629 51.3928 125.094 51.3928Z" fill="#C1D9FF"/>
<path d="M65.3731 85.2233V56.001C65.3731 53.4674 67.4477 51.3928 69.9813 51.3928H43.9051C41.3702 51.3928 39.2969 53.4674 39.2969 56.001V83.2428C39.2969 88.965 43.9799 93.648 49.7021 93.648H65.5007C66.6831 93.648 67.8525 93.4443 68.9472 93.051C66.7617 91.1402 65.3731 88.3358 65.3731 85.2233Z" fill="#6CA4FF"/>
<path d="M37.4917 57.3589H32.5702C31.2924 57.3589 30.248 58.4046 30.248 59.681V81.9162C30.248 83.1927 31.2924 84.2371 32.5702 84.2371H37.4917C38.7682 84.2371 39.8126 83.1927 39.8126 81.9162V59.681C39.8126 58.4046 38.7682 57.3589 37.4917 57.3589Z" fill="#C1D9FF"/>
<path d="M131.508 57.3589H136.43C137.708 57.3589 138.752 58.4046 138.752 59.681V81.9162C138.752 83.1927 137.708 84.2371 136.43 84.2371H131.508C130.232 84.2371 129.188 83.1927 129.188 81.9162V59.681C129.188 58.4046 130.232 57.3589 131.508 57.3589Z" fill="#C1D9FF"/>
<path d="M35.0316 72.67C32.4 72.67 30.248 70.518 30.248 67.8877V81.916C30.248 83.1925 31.2937 84.2382 32.5702 84.2382H37.4917C38.7682 84.2382 39.8139 83.1925 39.8139 81.916V67.8877C39.8126 70.518 37.6606 72.67 35.0316 72.67Z" fill="#6CA4FF"/>
<path d="M133.97 72.67C131.339 72.67 129.188 70.5181 129.188 67.8878V81.9161C129.188 83.1926 130.232 84.237 131.508 84.237H136.43C137.706 84.237 138.752 83.1926 138.752 81.9161V67.8865C138.752 70.5181 136.599 72.67 133.97 72.67Z" fill="#6CA4FF"/>
<path d="M123.667 64.551H129.447C130.678 64.551 131.685 65.558 131.685 66.7881V74.8092C131.685 76.0393 130.678 77.0463 129.447 77.0463H123.667C122.437 77.0463 121.43 76.0393 121.43 74.8092V66.7881C121.43 65.558 122.437 64.551 123.667 64.551Z" fill="#3E7FFF"/>
<path d="M45.335 64.551H39.5535C38.3234 64.551 37.3164 65.558 37.3164 66.7881V74.8092C37.3164 76.0393 38.3234 77.0463 39.5535 77.0463H45.335C46.565 77.0463 47.572 76.0393 47.572 74.8092V66.7881C47.572 65.558 46.565 64.551 45.335 64.551Z" fill="#3E7FFF"/>
</g>
<defs>
<clipPath id="clip0_703_45">
<rect width="169" height="169" fill="white"/>
</clipPath>
</defs>
</svg>
