<svg width="74" height="74" viewBox="0 0 74 74" fill="none" xmlns="http://www.w3.org/2000/svg">
<path d="M70.9798 18.1182L70.9726 68.2235C70.9726 71.4004 68.3733 73.9997 65.1964 73.9997H7.4344C4.25756 73.9997 1.6582 71.4004 1.6582 68.2235L1.66543 18.1182H70.9798Z" fill="#DEEBFF"/>
<path d="M70.9659 10.7772L70.9732 18.1188H1.67324L1.66602 10.7772C1.66602 7.58588 4.25092 5.00098 7.44221 5.00098H65.1897C68.3667 5.00098 70.9659 7.60034 70.9659 10.7772Z" fill="#C1D9FF"/>
<path d="M10.9309 73.9992H7.43635C4.25943 73.9992 1.66016 71.3999 1.66016 68.223L1.66738 18.1321H5.16196L5.15473 68.223C5.15473 71.3999 7.75409 73.9992 10.9309 73.9992Z" fill="#C1D9FF"/>
<path d="M10.9309 5C7.73964 5 5.15473 7.5849 5.15473 10.7762L5.16196 18.1322H1.66738L1.66016 10.7762C1.66016 7.5849 4.25943 5 7.43635 5H10.9309Z" fill="#A8C7F7"/>
<path d="M26.4052 11.5665C26.4052 12.9241 25.3053 14.024 23.9576 14.024C22.6 14.024 21.5 12.9241 21.5 11.5665C21.5 10.2089 22.6 9.10889 23.9576 9.10889C25.3053 9.10889 26.4052 10.2089 26.4052 11.5665Z" fill="#6CA4FF"/>
<path d="M19.622 11.5665C19.622 12.9241 18.5221 14.024 17.1744 14.024C15.8168 14.024 14.7168 12.9241 14.7168 11.5665C14.7168 10.2089 15.8168 9.10889 17.1744 9.10889C18.5221 9.10889 19.622 10.2089 19.622 11.5665Z" fill="#6CA4FF"/>
<path d="M12.8349 11.5665C12.8349 12.9241 11.735 14.024 10.3873 14.024C9.02969 14.024 7.92969 12.9241 7.92969 11.5665C7.92969 10.2089 9.02969 9.10889 10.3873 9.10889C11.735 9.10889 12.8349 10.2089 12.8349 11.5665Z" fill="#6CA4FF"/>
<path d="M64.7029 11.8599C64.7029 12.7283 63.9979 13.4332 63.1296 13.4332H40.2022C39.3253 13.4332 38.6289 12.7283 38.6289 11.8599C38.6289 10.9916 39.3253 10.2866 40.2022 10.2866H63.1296C63.9979 10.2866 64.7029 10.9916 64.7029 11.8599Z" fill="#6CA4FF"/>
<path d="M25.1435 25.0906C25.1435 25.7549 24.6092 26.3036 23.9449 26.3036H8.63804C7.97374 26.3036 7.43945 25.7549 7.43945 25.0906C7.43945 24.4264 7.97374 23.8921 8.63804 23.8921H23.9449C24.6092 23.8921 25.1435 24.4264 25.1435 25.0906Z" fill="#B5CEF6"/>
<path d="M25.1435 30.1897C25.1435 30.854 24.6092 31.4027 23.9449 31.4027H8.63804C7.97374 31.4027 7.43945 30.854 7.43945 30.1897C7.43945 29.5255 7.97374 28.9912 8.63804 28.9912H23.9449C24.6092 28.9912 25.1435 29.5255 25.1435 30.1897Z" fill="#B5CEF6"/>
<path d="M16.8908 35.2896C16.8908 35.9539 16.3565 36.5026 15.6922 36.5026H8.63804C7.97374 36.5026 7.43945 35.9539 7.43945 35.2896C7.43945 34.6254 7.97374 34.0911 8.63804 34.0911H15.6922C16.3565 34.0911 16.8908 34.6254 16.8908 35.2896Z" fill="#B5CEF6"/>
<path d="M13.7963 68.2244H8.45004C7.8876 68.2244 7.43164 67.7684 7.43164 67.206V59.2684C7.43164 58.7059 7.8876 58.25 8.45004 58.25H13.7963C14.3587 58.25 14.8147 58.7059 14.8147 59.2684V67.206C14.8147 67.7684 14.3587 68.2244 13.7963 68.2244Z" fill="#ADCBFA"/>
<path d="M23.8724 68.2238H18.5262C17.9638 68.2238 17.5078 67.7678 17.5078 67.2054V50.5133C17.5078 49.9508 17.9638 49.4949 18.5262 49.4949H23.8724C24.4349 49.4949 24.8908 49.9508 24.8908 50.5133V67.2054C24.8908 67.7678 24.4349 68.2238 23.8724 68.2238Z" fill="#65B9FF"/>
<path d="M33.9467 68.2244H28.6004C28.038 68.2244 27.582 67.7684 27.582 67.206V54.4886C27.582 53.9262 28.038 53.4702 28.6004 53.4702H33.9467C34.5091 53.4702 34.9651 53.9262 34.9651 54.4886V67.206C34.9651 67.7684 34.5091 68.2244 33.9467 68.2244Z" fill="#ADCBFA"/>
<path d="M44.0267 68.2239H38.6805C38.1181 68.2239 37.6621 67.768 37.6621 67.2055V45.369C37.6621 44.8065 38.1181 44.3506 38.6805 44.3506H44.0267C44.5892 44.3506 45.0451 44.8065 45.0451 45.369V67.2055C45.0451 67.768 44.5892 68.2239 44.0267 68.2239Z" fill="#65B9FF"/>
<path d="M54.0951 68.2243H48.7489C48.1864 68.2243 47.7305 67.7683 47.7305 67.2059V62.2467C47.7305 61.6842 48.1864 61.2283 48.7489 61.2283H54.0951C54.6575 61.2283 55.1135 61.6842 55.1135 62.2467V67.2059C55.1135 67.7683 54.6575 68.2243 54.0951 68.2243Z" fill="#ADCBFA"/>
<path d="M64.1771 68.2238H58.8309C58.2685 68.2238 57.8125 67.7679 57.8125 67.2054V40.3609C57.8125 39.7985 58.2685 39.3425 58.8309 39.3425H64.1771C64.7396 39.3425 65.1955 39.7985 65.1955 40.3609V67.2054C65.1955 67.7679 64.7396 68.2238 64.1771 68.2238Z" fill="#65B9FF"/>
<path d="M64.7214 28.4413L63.9272 32.4846C63.7828 33.2211 62.8875 33.5243 62.3243 33.019L61.4867 32.2825L51.6672 43.4883C51.3257 43.8867 50.7612 43.9446 50.3242 43.575L41.4578 35.4594L32.0137 47.315C31.6311 47.7614 31.026 47.7707 30.6418 47.4161L21.3132 38.824L11.8547 50.9107C11.5679 51.3171 10.9463 51.3883 10.5407 51.0839C10.1363 50.7518 10.0641 50.1742 10.3819 49.7554L20.4613 36.8601C20.7951 36.4351 21.4306 36.3729 21.8332 36.7445L31.1617 45.3511L40.6202 33.5099C40.974 33.0598 41.5947 33.0408 41.9776 33.3943L50.8874 41.5388L60.086 31.0405L59.234 30.3041C58.6708 29.8131 58.8442 28.9034 59.5517 28.6579L63.4507 27.3294C64.1727 27.0983 64.8658 27.7048 64.7214 28.4413Z" fill="#6CA4FF"/>
<path d="M10.6616 68.2247H8.45226C7.88906 68.2247 7.44141 67.7627 7.44141 67.1995V59.2716C7.44141 58.7084 7.88906 58.2463 8.45226 58.2463H10.6616C10.0985 58.2463 9.65084 58.7084 9.65084 59.2716V67.1995C9.65084 67.7627 10.0985 68.2247 10.6616 68.2247Z" fill="#6CA4FF"/>
<path d="M20.7405 68.2239H18.5311C17.968 68.2239 17.5059 67.7619 17.5059 67.1987V50.5199C17.5059 49.9567 17.968 49.4946 18.5311 49.4946H20.7405C20.1773 49.4946 19.7152 49.9567 19.7152 50.5199V67.1987C19.7152 67.7619 20.1773 68.2239 20.7405 68.2239Z" fill="#3E7FFF"/>
<path d="M30.8167 68.224H28.6073C28.0441 68.224 27.582 67.7619 27.582 67.1987V54.4911C27.582 53.9279 28.0441 53.4658 28.6073 53.4658H30.8167C30.2535 53.4658 29.7914 53.9279 29.7914 54.4911V67.1987C29.7914 67.7619 30.2535 68.224 30.8167 68.224Z" fill="#6CA4FF"/>
<path d="M40.8883 68.2246H38.6788C38.1156 68.2246 37.668 67.7626 37.668 67.1994V45.3653C37.668 44.8021 38.1156 44.3545 38.6788 44.3545H40.8883C40.3395 44.3545 39.8774 44.8021 39.8774 45.3653V67.1994C39.8774 67.7626 40.3395 68.2246 40.8883 68.2246Z" fill="#3E7FFF"/>
<path d="M50.9604 68.2235H48.751C48.1879 68.2235 47.7402 67.7615 47.7402 67.1983V62.2452C47.7402 61.682 48.1879 61.2344 48.751 61.2344H50.9604C50.3972 61.2344 49.9496 61.682 49.9496 62.2452V67.1983C49.9496 67.7615 50.3972 68.2235 50.9604 68.2235Z" fill="#6CA4FF"/>
<path d="M61.0472 68.224H58.8378C58.2746 68.224 57.8125 67.762 57.8125 67.1988V40.3539C57.8125 39.8051 58.2746 39.343 58.8378 39.343H61.0472C60.484 39.343 60.0219 39.8051 60.0219 40.3539V67.1988C60.0219 67.762 60.484 68.224 61.0472 68.224Z" fill="#3E7FFF"/>
</svg>
